<mxfile host="app.diagrams.net" modified="2024-01-20T10:28:34.628Z" agent="Mozilla/5.0 (Windows NT 10.0; Win64; x64) AppleWebKit/537.36 (KHTML, like Gecko) Chrome/120.0.0.0 Whale/3.24.223.18 Safari/537.36" version="22.1.20" etag="n5MjznFWXzE8vHBkYKfw" type="github">
  <diagram name="페이지-1" id="X-wZf3cjrIjKoczP3ecD">
    <mxGraphModel>
      <root>
        <mxCell id="0" />
        <mxCell id="1" parent="0" />
      </root>
    </mxGraphModel>
  </diagram>
</mxfile>
